<?xml version="1.0" standalone="no"?>
<!DOCTYPE svg PUBLIC "-//W3C//DTD SVG 20010904//EN"
 "http://www.w3.org/TR/2001/REC-SVG-20010904/DTD/svg10.dtd">
<svg version="1.0" xmlns="http://www.w3.org/2000/svg"
 width="500.000000pt" height="500.000000pt" viewBox="0 0 500.000000 500.000000"
 preserveAspectRatio="xMidYMid meet">
<metadata>
Created by potrace 1.14, written by Peter Selinger 2001-2017
</metadata>
<g transform="translate(0.000000,500.000000) scale(0.100000,-0.100000)"
fill="#000000" stroke="none">
<path d="M943 3207 c-390 -584 -710 -1066 -712 -1072 -2 -5 -7 -12 -10 -15 -3
-3 -32 -44 -63 -92 l-58 -88 1054 0 1053 0 361 542 c199 299 365 548 369 554
4 5 13 18 18 27 6 9 185 278 398 597 214 320 391 588 393 595 4 11 -184 13
-1045 13 l-1050 0 -708 -1061z"/>
<path d="M3063 2838 c-115 -172 -210 -315 -213 -318 -4 -4 -498 -745 -522
-783 -5 -8 -96 -12 -297 -12 -159 0 -291 -2 -293 -5 -21 -28 -580 -873 -584
-883 -4 -11 175 -13 1096 -13 l1101 1 139 210 c77 116 143 215 147 220 4 6 37
55 73 110 36 55 67 102 70 105 3 3 30 43 60 90 30 47 57 87 60 90 8 8 84 124
89 135 2 6 21 33 43 62 21 29 38 55 38 58 0 3 18 30 40 60 22 30 40 57 40 60
0 3 23 36 50 75 28 39 50 72 50 74 0 4 111 170 127 191 4 6 42 62 83 125 41
63 77 117 80 120 8 8 85 124 89 135 2 6 21 33 43 62 21 29 38 55 38 58 0 3 18
30 40 60 22 30 40 58 40 62 0 4 11 21 25 37 14 16 25 33 25 37 0 4 6 14 13 21
7 7 20 25 30 41 l17 27 -815 0 -815 0 -207 -312z"/>
</g>
</svg>
